<svg width="446" height="42" viewBox="0 0 446 42" fill="none" xmlns="http://www.w3.org/2000/svg">
<mask id="mask0_2_5737" style="mask-type:alpha" maskUnits="userSpaceOnUse" x="0" y="0" width="446" height="42">
<path d="M13.4929 0C8.19666 0 5.1702 1.89154 3.53087 3.65697C1.63934 5.6746 0.630524 8.19665 0.630524 10.8448C0.630524 17.9065 7.81835 20.0502 12.4841 21.6896C17.7804 23.5811 20.1764 24.9682 20.1764 27.112C20.1764 28.8774 19.0414 30.2645 17.6543 30.895C15.7628 31.7778 13.8713 31.1473 12.1058 31.0212C10.4665 30.8951 8.95327 32.1561 8.95327 34.2998C8.95327 36.9479 12.6102 37.9568 15.2584 37.9568C23.455 37.9568 26.9859 32.6605 26.9859 27.4903C26.9859 21.1852 21.1852 18.4109 14.6279 15.8889C9.20547 13.8713 7.44004 12.4841 7.44004 10.8448C7.44004 8.32275 9.83599 6.55731 13.3668 6.55731C17.276 6.55731 19.5459 8.70106 20.4286 9.58378C21.6896 10.7187 23.5811 10.8448 24.8421 9.33156C25.7249 8.19664 25.9771 6.43121 24.9682 5.29629C23.5811 3.15255 19.5459 0 13.4929 0Z" fill="#208A88"/>
<path d="M431.9 0C426.604 0 423.577 1.89154 421.938 3.65697C420.046 5.6746 419.038 8.19665 419.038 10.8448C419.038 17.9065 426.225 20.0502 430.891 21.6896C436.188 23.5811 438.583 24.9682 438.583 27.112C438.583 28.8774 437.449 30.2645 436.061 30.895C434.17 31.7778 432.278 31.1473 430.513 31.0212C428.874 30.8951 427.36 32.1561 427.36 34.2998C427.36 36.9479 431.017 37.9568 433.665 37.9568C441.862 37.9568 445.393 32.6605 445.393 27.4903C445.393 21.1852 439.592 18.4109 433.035 15.8889C427.739 13.8713 425.847 12.4841 425.847 10.8448C425.847 8.32275 428.243 6.55731 431.774 6.55731C435.683 6.55731 437.953 8.70106 438.836 9.58378C440.097 10.7187 441.988 10.8448 443.249 9.33156C444.132 8.19664 444.384 6.43121 443.375 5.29629C441.862 3.15255 437.827 0 431.9 0Z" fill="#208A88"/>
<path d="M88.5237 0.88269C86.6322 0.88269 85.119 2.39592 85.119 4.28746V21.8157C85.119 31.3994 91.4241 37.9568 100.882 37.9568C111.727 37.9568 116.645 29.634 116.645 21.8157V14.5017C116.645 12.6102 115.131 11.097 113.24 11.097C111.348 11.097 109.835 12.6102 109.835 14.5017V21.6896C109.835 26.2292 107.565 31.0211 101.008 31.0211C92.9373 31.0211 92.1807 24.5899 92.1807 21.6896V4.16136C91.9285 2.39592 90.4153 0.88269 88.5237 0.88269Z" fill="#208A88"/>
<path d="M113.114 0.88269C111.222 0.88269 109.709 2.39592 109.709 4.28746C109.709 6.17899 111.222 7.69222 113.114 7.69222C115.005 7.69222 116.518 6.17899 116.518 4.28746C116.518 2.39592 115.005 0.88269 113.114 0.88269Z" fill="#208A88"/>
<path d="M173.012 0.88269C171.121 0.88269 169.607 2.39592 169.607 4.28746V33.5432C169.607 35.4347 171.121 36.9479 173.012 36.9479C174.904 36.9479 176.417 35.4347 176.417 33.5432V7.44H182.344C190.036 7.44 194.071 11.3492 194.071 18.9153C194.071 21.9418 193.189 24.5899 191.675 26.4814C191.297 26.8598 190.793 27.3642 190.54 27.8686C189.153 29.2557 189.153 31.2733 190.162 32.5344C191.423 33.9215 193.567 34.1737 194.954 32.9127C198.737 29.634 200.881 24.4638 200.881 19.0414C200.881 7.81832 193.819 1.0088 182.344 1.0088L173.012 0.88269Z" fill="#208A88"/>
<path d="M311.473 0.88269C309.581 0.88269 308.068 2.39592 308.068 4.28746V33.5432C308.068 35.4347 309.581 36.9479 311.473 36.9479C313.364 36.9479 314.877 35.4347 314.877 33.5432V23.2028L326.857 35.9391C328.244 37.3262 330.388 37.3262 331.649 36.0652C333.036 34.6781 333.036 32.5344 331.775 31.2733L319.039 18.1587L323.578 13.9973C324.966 12.6102 324.966 10.4665 323.578 9.20545C322.191 7.81832 320.048 7.94442 318.787 9.20545L314.877 13.3668V4.28746C314.877 2.39592 313.364 0.88269 311.473 0.88269Z" fill="#208A88"/>
<path d="M328.37 0.88269C326.479 0.88269 324.966 2.39592 324.966 4.28746C324.966 6.17899 326.479 7.69222 328.37 7.69222C330.262 7.69222 331.775 6.17899 331.775 4.28746C331.901 2.39592 330.262 0.88269 328.37 0.88269Z" fill="#208A88"/>
<path d="M347.411 0.88269C345.52 0.88269 344.007 2.39592 344.007 4.28746V33.5432C344.007 35.4347 345.52 36.9479 347.411 36.9479H364.94C366.831 36.9479 368.344 35.4347 368.344 33.5432C368.344 31.6516 366.831 30.1384 364.94 30.1384H350.816V22.194H362.796C364.688 22.194 366.201 20.8068 366.201 18.9153C366.201 17.0238 364.688 15.6366 362.796 15.6366H350.816V7.81831H354.473C356.365 7.81831 357.878 6.30509 357.878 4.41356C357.878 2.52202 356.365 1.0088 354.473 1.0088L347.411 0.88269Z" fill="#208A88"/>
<path d="M364.814 0.88269C362.922 0.88269 361.409 2.39592 361.409 4.28746C361.409 6.17899 362.922 7.69222 364.814 7.69222C366.705 7.69222 368.218 6.17899 368.218 4.28746C368.218 2.39592 366.705 0.88269 364.814 0.88269Z" fill="#208A88"/>
<path d="M215.509 0.882719C215.383 0.882719 215.13 0.882727 215.004 1.00883C213.491 1.38714 212.482 2.77426 212.482 4.28749V33.5432C212.482 35.4347 213.995 36.948 215.887 36.948C217.779 36.948 219.292 35.4347 219.292 33.5432V16.015L228.876 35.0564C229.506 36.1913 230.641 36.8218 231.902 36.8218C233.163 36.8218 234.298 36.1913 234.928 35.0564L245.017 15.6367V23.2028C245.017 25.0943 246.53 26.6076 248.421 26.6076C250.313 26.6076 251.826 25.0943 251.826 23.2028V4.16138C251.826 2.64816 250.691 1.26103 249.304 0.882719C247.791 0.504413 246.152 1.13493 245.521 2.52205L232.028 27.3642L218.913 2.52205C218.157 1.51323 216.77 0.756617 215.509 0.882719Z" fill="#208A88"/>
<path d="M55.7372 0C45.2707 0 36.8219 8.44886 36.8219 19.0414C36.8219 29.5079 45.2707 37.9568 55.7372 37.9568C66.2037 37.9568 74.7787 29.5079 74.7787 19.0414C74.6526 8.44886 66.2037 0 55.7372 0ZM55.7372 31.0212C49.0538 31.0212 43.6314 25.7249 43.6314 18.9153C43.6314 12.2319 49.0538 6.80952 55.7372 6.80952C62.4207 6.80952 67.843 12.2319 67.843 18.9153C67.843 25.7249 62.4207 31.0212 55.7372 31.0212Z" fill="#208A88"/>
<path d="M406.932 12.358C406.932 5.29628 402.14 0.88269 394.826 0.88269H383.729C381.837 0.88269 380.324 2.39592 380.324 4.28746V33.5432C380.324 35.4347 381.837 36.9479 383.729 36.9479C385.62 36.9479 387.134 35.4347 387.134 33.5432V24.2116H394.574L396.087 26.7336C397.096 28.373 399.24 28.7513 400.753 27.7425C403.905 25.7248 401.383 22.4462 401.383 22.4462C405.04 20.4285 406.932 16.7716 406.932 12.358ZM394.7 18.4109H387.134V7.56611H394.7C398.231 7.56611 399.996 9.70985 399.996 12.8624C400.122 15.6367 398.735 18.4109 394.7 18.4109Z" fill="#208A88"/>
<path d="M154.349 22.194L145.144 2.77429C144.513 1.63937 143.378 0.756653 141.991 0.756653C140.604 0.756653 139.469 1.51326 138.839 2.77429L124.967 32.03C124.211 33.7954 124.967 35.8131 126.607 36.5697C128.246 37.3263 130.264 36.5697 131.146 34.9304L134.425 28.1208H151.701C152.836 28.1208 153.971 27.4903 154.475 26.6076C155.862 24.9683 154.854 23.4551 154.349 22.194ZM137.325 22.3201L142.117 12.232L146.909 22.3201H137.325Z" fill="#208A88"/>
<path d="M292.809 22.194L283.604 2.77429C283.099 1.63937 281.838 0.756653 280.451 0.756653C279.064 0.756653 277.929 1.51326 277.299 2.77429L263.427 32.03C262.671 33.7954 263.428 35.8131 265.067 36.5697C266.832 37.3263 268.724 36.5697 269.607 34.9304L272.885 28.1208H290.161C291.296 28.1208 292.431 27.4903 293.062 26.6076C294.323 24.9683 293.314 23.4551 292.809 22.194ZM275.786 22.3201L280.577 12.232L285.369 22.3201H275.786Z" fill="#208A88"/>
<path d="M3.40476 26.3553C1.51323 26.3553 0 27.8686 0 29.7601C0 31.6517 1.51323 33.1649 3.40476 33.1649C5.29629 33.1649 6.80952 31.6517 6.80952 29.7601C6.80952 27.7425 5.29629 26.3553 3.40476 26.3553Z" fill="#208A88"/>
<path d="M421.686 26.3553C419.794 26.3553 418.281 27.8686 418.281 29.7601C418.281 31.6517 419.794 33.1649 421.686 33.1649C423.577 33.1649 425.091 31.6517 425.091 29.7601C425.091 27.7425 423.577 26.3553 421.686 26.3553Z" fill="#208A88"/>
<path d="M404.662 30.0123C402.771 30.0123 401.257 31.5256 401.257 33.4171C401.257 35.3086 402.771 36.8218 404.662 36.8218C406.554 36.8218 408.067 35.3086 408.067 33.4171C408.067 31.6517 406.554 30.0123 404.662 30.0123Z" fill="#208A88"/>
<path d="M155.988 30.1384C154.097 30.1384 152.584 31.6517 152.584 33.5432C152.584 35.4347 154.097 36.948 155.988 36.948C157.88 36.948 159.393 35.4347 159.393 33.5432C159.393 31.6517 157.88 30.1384 155.988 30.1384Z" fill="#208A88"/>
<path d="M183.226 30.1384C181.335 30.1384 179.822 31.6517 179.822 33.5432C179.822 35.4347 181.335 36.948 183.226 36.948C185.118 36.948 186.631 35.4347 186.631 33.5432C186.631 31.6517 185.118 30.1384 183.226 30.1384Z" fill="#208A88"/>
<path d="M248.169 30.1384C246.278 30.1384 244.764 31.6517 244.764 33.5432C244.764 35.4347 246.278 36.948 248.169 36.948C250.061 36.948 251.574 35.4347 251.574 33.5432C251.7 31.6517 250.187 30.1384 248.169 30.1384Z" fill="#208A88"/>
<path d="M294.449 30.1384C292.557 30.1384 291.044 31.6517 291.044 33.5432C291.044 35.4347 292.557 36.948 294.449 36.948C296.34 36.948 297.853 35.4347 297.853 33.5432C297.853 31.6517 296.34 30.1384 294.449 30.1384Z" fill="#208A88"/>
<path d="M71.4999 34.8042C69.6084 34.8042 68.0952 36.3174 68.0952 38.209C68.0952 40.1005 69.6084 41.6137 71.4999 41.6137C73.3915 41.6137 74.9047 40.1005 74.9047 38.209C74.9047 36.3174 73.3915 34.8042 71.4999 34.8042Z" fill="#208A88"/>
</mask>
<g mask="url(#mask0_2_5737)">
<rect x="-0.569397" y="-0.300842" width="446.402" height="42.8748" fill="white"/>
</g>
</svg>
