<svg width="160" height="31" viewBox="0 0 160 31" fill="none" xmlns="http://www.w3.org/2000/svg">
<g opacity="0.7">
<g filter="url(#filter0_d_2_7252)">
<rect x="4" y="4" width="23.1873" height="23.1873" rx="2.89841" stroke="url(#paint0_linear_2_7252)" stroke-width="1.15936" shape-rendering="crispEdges"/>
</g>
<g filter="url(#filter1_d_2_7252)">
<path d="M15.6011 9.79672C13.9806 9.79672 13.0524 10.3953 12.5489 10.8994C11.9668 11.498 11.6521 12.2698 11.6521 13.0889C11.6678 15.247 13.839 15.8928 15.2865 16.4127C16.8913 16.9955 17.6307 17.4208 17.6307 18.0824C17.6307 18.6337 17.3003 19.0275 16.8598 19.2323C16.2934 19.5001 15.7113 19.3111 15.1763 19.2796C14.6571 19.248 14.2166 19.6103 14.2166 20.2719C14.2166 21.0753 15.3179 21.3903 16.1361 21.3903C18.6376 21.3903 19.7232 19.7679 19.7232 18.2084C19.7232 16.2709 17.9454 15.4203 15.9315 14.6484C14.2953 14.0183 13.7446 13.593 13.7446 13.0889C13.7446 12.3171 14.4841 11.7657 15.5382 11.7657C16.7497 11.7657 17.4104 12.4273 17.6936 12.6794C18.087 13.0259 18.6534 13.0732 19.031 12.6006C19.3142 12.2383 19.3614 11.7342 19.0782 11.3562C18.6691 10.7734 17.4419 9.79672 15.6011 9.79672Z" fill="white"/>
<path d="M12.5017 17.8462C11.9353 17.8462 11.4633 18.303 11.4633 18.8858C11.4633 19.4687 11.9353 19.9255 12.5017 19.9255C13.0838 19.9255 13.5558 19.4687 13.5558 18.8858C13.5558 18.303 13.0996 17.8462 12.5017 17.8462Z" fill="white"/>
</g>
<mask id="mask0_2_7252" style="mask-type:alpha" maskUnits="userSpaceOnUse" x="35" y="10" width="125" height="13">
<path d="M39.6722 10.7787C38.1967 10.7787 37.3535 11.3057 36.8968 11.7975C36.3698 12.3596 36.0887 13.0623 36.0887 13.8001C36.0887 15.7675 38.0913 16.3647 39.3912 16.8214C40.8667 17.3484 41.5342 17.7349 41.5342 18.3321C41.5342 18.824 41.218 19.2104 40.8316 19.3861C40.3046 19.632 39.7776 19.4563 39.2858 19.4212C38.8291 19.3861 38.4075 19.7374 38.4075 20.3346C38.4075 21.0724 39.4263 21.3535 40.1641 21.3535C42.4477 21.3535 43.4314 19.8779 43.4314 18.4375C43.4314 16.6809 41.8153 15.908 39.9884 15.2053C38.4777 14.6432 37.9859 14.2568 37.9859 13.8001C37.9859 13.0974 38.6534 12.6056 39.6371 12.6056C40.7262 12.6056 41.3586 13.2028 41.6045 13.4487C41.9558 13.7649 42.4828 13.8001 42.8341 13.3785C43.0801 13.0623 43.1503 12.5704 42.8693 12.2542C42.4828 11.657 41.3586 10.7787 39.6722 10.7787Z" fill="#208A88"/>
<path d="M156.241 10.7787C154.765 10.7787 153.922 11.3057 153.465 11.7975C152.938 12.3596 152.657 13.0623 152.657 13.8001C152.657 15.7675 154.66 16.3647 155.96 16.8214C157.435 17.3484 158.103 17.7349 158.103 18.3321C158.103 18.824 157.787 19.2104 157.4 19.3861C156.873 19.632 156.346 19.4563 155.854 19.4212C155.398 19.3861 154.976 19.7374 154.976 20.3346C154.976 21.0724 155.995 21.3535 156.733 21.3535C159.016 21.3535 160 19.8779 160 18.4375C160 16.6809 158.384 15.908 156.557 15.2053C155.082 14.6432 154.555 14.2568 154.555 13.8001C154.555 13.0974 155.222 12.6056 156.206 12.6056C157.295 12.6056 157.927 13.2028 158.173 13.4487C158.524 13.7649 159.051 13.8001 159.403 13.3785C159.649 13.0623 159.719 12.5704 159.438 12.2542C159.016 11.657 157.892 10.7787 156.241 10.7787Z" fill="#208A88"/>
<path d="M60.5759 11.0246C60.0489 11.0246 59.6273 11.4462 59.6273 11.9732V16.8565C59.6273 19.5266 61.3839 21.3535 64.0188 21.3535C67.0402 21.3535 68.4104 19.0347 68.4104 16.8565V14.8189C68.4104 14.2919 67.9888 13.8703 67.4618 13.8703C66.9348 13.8703 66.5132 14.2919 66.5132 14.8189V16.8214C66.5132 18.0862 65.8809 19.4212 64.054 19.4212C61.8055 19.4212 61.5947 17.6295 61.5947 16.8214V11.938C61.5245 11.4462 61.1029 11.0246 60.5759 11.0246Z" fill="#208A88"/>
<path d="M67.4267 11.0246C66.8997 11.0246 66.4781 11.4462 66.4781 11.9732C66.4781 12.5002 66.8997 12.9217 67.4267 12.9217C67.9536 12.9217 68.3752 12.5002 68.3752 11.9732C68.3752 11.4462 67.9536 11.0246 67.4267 11.0246Z" fill="#208A88"/>
<path d="M84.1145 11.0246C83.5875 11.0246 83.1659 11.4462 83.1659 11.9732V20.1238C83.1659 20.6508 83.5875 21.0724 84.1145 21.0724C84.6414 21.0724 85.063 20.6508 85.063 20.1238V12.8515H86.7142C88.8573 12.8515 89.9815 13.9406 89.9815 16.0485C89.9815 16.8917 89.7356 17.6295 89.314 18.1564C89.2086 18.2618 89.0681 18.4024 88.9978 18.5429C88.6114 18.9293 88.6114 19.4915 88.8924 19.8428C89.2438 20.2292 89.841 20.2995 90.2275 19.9482C91.2814 19.0347 91.8787 17.5943 91.8787 16.0836C91.8787 12.9569 89.9113 11.0597 86.7142 11.0597L84.1145 11.0246Z" fill="#208A88"/>
<path d="M122.69 11.0246C122.163 11.0246 121.741 11.4462 121.741 11.9732V20.1238C121.741 20.6508 122.163 21.0724 122.69 21.0724C123.217 21.0724 123.638 20.6508 123.638 20.1238V17.243L126.976 20.7914C127.362 21.1778 127.959 21.1778 128.311 20.8265C128.697 20.44 128.697 19.8428 128.346 19.4915L124.798 15.8377L126.062 14.6784C126.449 14.2919 126.449 13.6946 126.062 13.3433C125.676 12.9569 125.079 12.992 124.727 13.3433L123.638 14.5027V11.9732C123.638 11.4462 123.217 11.0246 122.69 11.0246Z" fill="#208A88"/>
<path d="M127.397 11.0246C126.87 11.0246 126.449 11.4462 126.449 11.9732C126.449 12.5002 126.87 12.9217 127.397 12.9217C127.924 12.9217 128.346 12.5002 128.346 11.9732C128.381 11.4462 127.924 11.0246 127.397 11.0246Z" fill="#208A88"/>
<path d="M132.702 11.0246C132.175 11.0246 131.754 11.4462 131.754 11.9732V20.1238C131.754 20.6508 132.175 21.0724 132.702 21.0724H137.586C138.113 21.0724 138.534 20.6508 138.534 20.1238C138.534 19.5969 138.113 19.1753 137.586 19.1753H133.651V16.9619H136.988C137.515 16.9619 137.937 16.5755 137.937 16.0485C137.937 15.5215 137.515 15.1351 136.988 15.1351H133.651V12.9569H134.67C135.197 12.9569 135.618 12.5353 135.618 12.0083C135.618 11.4813 135.197 11.0597 134.67 11.0597L132.702 11.0246Z" fill="#208A88"/>
<path d="M137.551 11.0246C137.024 11.0246 136.602 11.4462 136.602 11.9732C136.602 12.5002 137.024 12.9217 137.551 12.9217C138.078 12.9217 138.499 12.5002 138.499 11.9732C138.499 11.4462 138.078 11.0246 137.551 11.0246Z" fill="#208A88"/>
<path d="M95.954 11.0246C95.9189 11.0246 95.8486 11.0246 95.8135 11.0598C95.3919 11.1652 95.1108 11.5516 95.1108 11.9732V20.1239C95.1108 20.6509 95.5324 21.0724 96.0594 21.0724C96.5864 21.0724 97.008 20.6509 97.008 20.1239V15.2405L99.678 20.5455C99.8537 20.8617 100.17 21.0373 100.521 21.0373C100.873 21.0373 101.189 20.8617 101.364 20.5455L104.175 15.1351V17.243C104.175 17.77 104.597 18.1916 105.124 18.1916C105.651 18.1916 106.072 17.77 106.072 17.243V11.9381C106.072 11.5165 105.756 11.13 105.369 11.0246C104.948 10.9192 104.491 11.0949 104.315 11.4813L100.556 18.4024L96.9026 11.4813C96.6918 11.2003 96.3053 10.9895 95.954 11.0246Z" fill="#208A88"/>
<path d="M51.4415 10.7787C48.5255 10.7787 46.1717 13.1325 46.1717 16.0837C46.1717 18.9996 48.5255 21.3535 51.4415 21.3535C54.3575 21.3535 56.7465 18.9996 56.7465 16.0837C56.7114 13.1325 54.3575 10.7787 51.4415 10.7787ZM51.4415 19.4212C49.5795 19.4212 48.0688 17.9457 48.0688 16.0485C48.0688 14.1865 49.5795 12.6758 51.4415 12.6758C53.3035 12.6758 54.8142 14.1865 54.8142 16.0485C54.8142 17.9457 53.3035 19.4212 51.4415 19.4212Z" fill="#208A88"/>
<path d="M149.285 14.2216C149.285 12.2542 147.95 11.0246 145.912 11.0246H142.82C142.293 11.0246 141.872 11.4462 141.872 11.9732V20.1238C141.872 20.6508 142.293 21.0724 142.82 21.0724C143.347 21.0724 143.769 20.6508 143.769 20.1238V17.5241H145.842L146.263 18.2267C146.544 18.6834 147.142 18.7888 147.563 18.5078C148.442 17.9456 147.739 17.0322 147.739 17.0322C148.758 16.4701 149.285 15.4513 149.285 14.2216ZM145.877 15.908H143.769V12.8866H145.877C146.861 12.8866 147.352 13.4839 147.352 14.3622C147.388 15.1351 147.001 15.908 145.877 15.908Z" fill="#208A88"/>
<path d="M78.9149 16.9619L76.3502 11.5516C76.1746 11.2354 75.8584 10.9895 75.4719 10.9895C75.0855 10.9895 74.7693 11.2003 74.5936 11.5516L70.7291 19.7023C70.5183 20.1941 70.7291 20.7562 71.1858 20.967C71.6425 21.1778 72.2046 20.967 72.4505 20.5103L73.364 18.6132H78.1771C78.4933 18.6132 78.8095 18.4375 78.95 18.1916C79.3365 17.7349 79.0554 17.3133 78.9149 16.9619ZM74.172 16.9971L75.507 14.1865L76.8421 16.9971H74.172Z" fill="#208A88"/>
<path d="M117.49 16.9619L114.925 11.5516C114.785 11.2354 114.434 10.9895 114.047 10.9895C113.661 10.9895 113.344 11.2003 113.169 11.5516L109.304 19.7023C109.093 20.1941 109.304 20.7562 109.761 20.967C110.253 21.1778 110.78 20.967 111.026 20.5103L111.939 18.6132H116.752C117.068 18.6132 117.385 18.4375 117.56 18.1916C117.912 17.7349 117.631 17.3133 117.49 16.9619ZM112.747 16.9971L114.082 14.1865L115.417 16.9971H112.747Z" fill="#208A88"/>
<path d="M36.8617 18.1213C36.3347 18.1213 35.9131 18.5429 35.9131 19.0699C35.9131 19.5969 36.3347 20.0184 36.8617 20.0184C37.3886 20.0184 37.8102 19.5969 37.8102 19.0699C37.8102 18.5078 37.3886 18.1213 36.8617 18.1213Z" fill="#208A88"/>
<path d="M153.395 18.1213C152.868 18.1213 152.447 18.5429 152.447 19.0699C152.447 19.5969 152.868 20.0184 153.395 20.0184C153.922 20.0184 154.344 19.5969 154.344 19.0699C154.344 18.5078 153.922 18.1213 153.395 18.1213Z" fill="#208A88"/>
<path d="M148.652 19.1402C148.125 19.1402 147.704 19.5618 147.704 20.0887C147.704 20.6157 148.125 21.0373 148.652 21.0373C149.179 21.0373 149.601 20.6157 149.601 20.0887C149.601 19.5969 149.179 19.1402 148.652 19.1402Z" fill="#208A88"/>
<path d="M79.3716 19.1753C78.8446 19.1753 78.423 19.5969 78.423 20.1238C78.423 20.6508 78.8446 21.0724 79.3716 21.0724C79.8986 21.0724 80.3202 20.6508 80.3202 20.1238C80.3202 19.5969 79.8986 19.1753 79.3716 19.1753Z" fill="#208A88"/>
<path d="M86.9602 19.1753C86.4332 19.1753 86.0116 19.5969 86.0116 20.1238C86.0116 20.6508 86.4332 21.0724 86.9602 21.0724C87.4872 21.0724 87.9087 20.6508 87.9087 20.1238C87.9087 19.5969 87.4872 19.1753 86.9602 19.1753Z" fill="#208A88"/>
<path d="M105.053 19.1753C104.526 19.1753 104.105 19.5969 104.105 20.1238C104.105 20.6508 104.526 21.0724 105.053 21.0724C105.58 21.0724 106.002 20.6508 106.002 20.1238C106.037 19.5969 105.615 19.1753 105.053 19.1753Z" fill="#208A88"/>
<path d="M117.947 19.1753C117.42 19.1753 116.998 19.5969 116.998 20.1238C116.998 20.6508 117.42 21.0724 117.947 21.0724C118.474 21.0724 118.895 20.6508 118.895 20.1238C118.895 19.5969 118.474 19.1753 117.947 19.1753Z" fill="#208A88"/>
<path d="M55.833 20.4752C55.306 20.4752 54.8845 20.8967 54.8845 21.4237C54.8845 21.9507 55.306 22.3723 55.833 22.3723C56.36 22.3723 56.7816 21.9507 56.7816 21.4237C56.7816 20.8967 56.36 20.4752 55.833 20.4752Z" fill="#208A88"/>
</mask>
<g mask="url(#mask0_2_7252)">
<rect x="35.7545" y="10.6949" width="124.368" height="11.945" fill="white"/>
</g>
</g>
<defs>
<filter id="filter0_d_2_7252" x="0.521881" y="0.521912" width="30.1435" height="30.1434" filterUnits="userSpaceOnUse" color-interpolation-filters="sRGB">
<feFlood flood-opacity="0" result="BackgroundImageFix"/>
<feColorMatrix in="SourceAlpha" type="matrix" values="0 0 0 0 0 0 0 0 0 0 0 0 0 0 0 0 0 0 127 0" result="hardAlpha"/>
<feOffset/>
<feGaussianBlur stdDeviation="1.4492"/>
<feComposite in2="hardAlpha" operator="out"/>
<feColorMatrix type="matrix" values="0 0 0 0 0.0196078 0 0 0 0 0.858824 0 0 0 0 0.94902 0 0 0 0.6 0"/>
<feBlend mode="normal" in2="BackgroundImageFix" result="effect1_dropShadow_2_7252"/>
<feBlend mode="normal" in="SourceGraphic" in2="effect1_dropShadow_2_7252" result="shape"/>
</filter>
<filter id="filter1_d_2_7252" x="7.98523" y="6.31863" width="15.2161" height="18.5498" filterUnits="userSpaceOnUse" color-interpolation-filters="sRGB">
<feFlood flood-opacity="0" result="BackgroundImageFix"/>
<feColorMatrix in="SourceAlpha" type="matrix" values="0 0 0 0 0 0 0 0 0 0 0 0 0 0 0 0 0 0 127 0" result="hardAlpha"/>
<feOffset/>
<feGaussianBlur stdDeviation="1.73904"/>
<feColorMatrix type="matrix" values="0 0 0 0 1 0 0 0 0 1 0 0 0 0 1 0 0 0 0.6 0"/>
<feBlend mode="hard-light" in2="BackgroundImageFix" result="effect1_dropShadow_2_7252"/>
<feBlend mode="normal" in="SourceGraphic" in2="effect1_dropShadow_2_7252" result="shape"/>
</filter>
<linearGradient id="paint0_linear_2_7252" x1="25.8315" y1="5.63946" x2="6.21554" y2="25.9752" gradientUnits="userSpaceOnUse">
<stop stop-color="#05DBF2"/>
<stop offset="1" stop-color="#5AE2D1"/>
</linearGradient>
</defs>
</svg>
